solid specimen_plate
  facet normal 0 0 1
    outer loop
      vertex -2.5 -1.2 0.2
      vertex 2.5 -1.2 0.2
      vertex 2.5 1.2 0.2
    endloop
  endfacet
  facet normal 0 0 1
    outer loop
      vertex -2.5 -1.2 0.2
      vertex 2.5 1.2 0.2
      vertex -2.5 1.2 0.2
    endloop
  endfacet
  facet normal 0 0 -1
    outer loop
      vertex -2.5 -1.2 -0.2
      vertex 2.5 1.2 -0.2
      vertex 2.5 -1.2 -0.2
    endloop
  endfacet
  facet normal 0 0 -1
    outer loop
      vertex -2.5 -1.2 -0.2
      vertex -2.5 1.2 -0.2
      vertex 2.5 1.2 -0.2
    endloop
  endfacet
  facet normal 0 -1 0
    outer loop
      vertex -2.5 -1.2 -0.2
      vertex 2.5 -1.2 -0.2
      vertex 2.5 -1.2 0.2
    endloop
  endfacet
  facet normal 0 -1 0
    outer loop
      vertex -2.5 -1.2 -0.2
      vertex 2.5 -1.2 0.2
      vertex -2.5 -1.2 0.2
    endloop
  endfacet
  facet normal 1 0 0
    outer loop
      vertex 2.5 -1.2 -0.2
      vertex 2.5 1.2 -0.2
      vertex 2.5 1.2 0.2
    endloop
  endfacet
  facet normal 1 0 0
    outer loop
      vertex 2.5 -1.2 -0.2
      vertex 2.5 1.2 0.2
      vertex 2.5 -1.2 0.2
    endloop
  endfacet
  facet normal 0 1 0
    outer loop
      vertex 2.5 1.2 -0.2
      vertex -2.5 1.2 -0.2
      vertex -2.5 1.2 0.2
    endloop
  endfacet
  facet normal 0 1 0
    outer loop
      vertex 2.5 1.2 -0.2
      vertex -2.5 1.2 0.2
      vertex 2.5 1.2 0.2
    endloop
  endfacet
  facet normal -1 0 0
    outer loop
      vertex -2.5 1.2 -0.2
      vertex -2.5 -1.2 -0.2
      vertex -2.5 -1.2 0.2
    endloop
  endfacet
  facet normal -1 0 0
    outer loop
      vertex -2.5 1.2 -0.2
      vertex -2.5 -1.2 0.2
      vertex -2.5 1.2 0.2
    endloop
  endfacet
endsolid specimen_plate
